<?xml version="1.0" standalone="no"?><!DOCTYPE svg PUBLIC "-//W3C//DTD SVG 1.1//EN" "http://www.w3.org/Graphics/SVG/1.1/DTD/svg11.dtd"><svg t="1752570803379" class="icon" viewBox="0 0 1025 1024" version="1.1" xmlns="http://www.w3.org/2000/svg" p-id="106466" xmlns:xlink="http://www.w3.org/1999/xlink" width="200.1953125" height="200"><path d="M234.057 3.408h561.32c126.822 0 229.63 102.809 229.63 229.63v561.32c0 126.821-102.809 229.631-229.63 229.631h-561.32c-126.822 0-229.63-102.81-229.63-229.63v-561.32c0-126.822 102.809-229.631 229.63-229.631z" fill="#9246ff" p-id="106467"></path><path d="M343.288 612.023c-6.99 0-16.039 2.81-27.177 8.367-20.906 11.183-40.44 16.053-58.539 14.646-62.716-2.778-96.166-41.84-100.347-117.155 2.776-76.687 36.225-117.153 100.347-121.338 25.088 1.406 43.903 5.589 56.448 12.55 11.14 2.812 20.187 4.186 27.177 4.186 19.502 0 29.954-11.834 31.36-35.565-2.81-34.847-41.126-54.393-114.985-58.577C143.276 328.91 81.963 394.45 73.6 515.789c6.96 122.745 68.27 186.908 183.972 192.47 78.04-1.406 118.447-20.921 121.256-58.579-4.181-23.7-16.04-36.253-35.54-37.658z m206.968-140.168c-40.44-12.55-60.626-26.477-60.626-41.84 0-20.92 14.635-32.066 43.901-33.472 16.725 1.406 30.64 4.902 41.812 10.46 12.543 2.81 22.278 4.184 29.27 4.184 20.905 0 32.731-13.24 35.54-39.75-2.809-30.662-37.63-48.116-104.53-52.3-83.624 6.993-127.526 47.43-131.708 121.338 0 48.836 36.913 83.681 110.802 104.601 44.588 12.555 66.9 27.198 66.9 43.937-1.405 30.69-19.534 46.024-54.356 46.024-13.947 0-32.077-3.464-54.355-10.464-12.544-5.556-24.4-9.053-35.54-10.46-22.311 2.812-34.168 15.368-35.54 37.659 1.372 36.284 44.59 55.081 129.617 56.487 86.401-4.184 132.394-43.938 137.98-119.246-0.002-55.767-39.724-94.831-119.167-117.157z m286.415 0c-40.44-12.55-60.63-26.477-60.63-41.84 0-20.92 14.637-32.066 43.904-33.472 16.726 1.406 30.639 4.902 41.812 10.46 12.544 2.81 22.277 4.184 29.27 4.184 20.903 0 32.73-13.24 35.537-39.75-2.808-30.662-37.63-48.116-104.529-52.3-83.625 6.993-127.525 47.43-131.706 121.338 0 48.836 36.91 83.681 110.8 104.601 44.587 12.555 66.899 27.198 66.899 43.937-1.405 30.69-19.534 46.024-54.356 46.024-13.947 0-32.077-3.464-54.355-10.464-12.544-5.556-24.402-9.053-35.54-10.46-22.312 2.812-34.168 15.368-35.54 37.659 1.373 36.284 44.59 55.081 129.618 56.487 86.4-4.184 132.392-43.938 137.979-119.246 0-55.767-39.722-94.831-119.163-117.157z" fill="#ffffff" p-id="106468" data-spm-anchor-id="a313x.search_index.0.i31.5b9a3a81jwTkoX" class="selected"></path></svg>