<?xml version="1.0" standalone="no"?><!DOCTYPE svg PUBLIC "-//W3C//DTD SVG 1.1//EN" "http://www.w3.org/Graphics/SVG/1.1/DTD/svg11.dtd"><svg t="1752568877138" class="icon" viewBox="0 0 1024 1024" version="1.1" xmlns="http://www.w3.org/2000/svg" p-id="79945" xmlns:xlink="http://www.w3.org/1999/xlink" width="200" height="200"><path d="M85.333333 0h853.333334c46.933333 0 85.333333 38.4 85.333333 85.333333v853.333334c0 46.933333-38.4 85.333333-85.333333 85.333333H85.333333c-46.933333 0-85.333333-38.4-85.333333-85.333333V85.333333c0-46.933333 38.4-85.333333 85.333333-85.333333z" fill="#F4F4F4" p-id="79946"></path><path d="M200.533333 179.2l46.933334 593.066667c0 8.533333 6.4 17.066667 14.933333 19.2l243.2 76.8c4.266667 2.133333 8.533333 2.133333 12.8 0l243.2-76.8c8.533333-2.133333 14.933333-10.666667 14.933333-19.2l46.933334-593.066667c0-12.8-8.533333-23.466667-21.333334-23.466667H221.866667c-12.8 0-23.466667 10.666667-21.333334 23.466667z" fill="#FC490B" p-id="79947"></path><path d="M706.133333 362.666667H403.2l8.533333 83.2h285.866667l-19.2 241.066666-166.4 53.333334-168.533333-53.333334-10.666667-125.866666h87.466667v61.866666l91.733333 25.6 91.733333-25.6 8.533334-98.133333H330.666667l-19.2-238.933333h398.933333l-4.266667 76.8z" fill="#FFFFFF" p-id="79948"></path></svg>