<?xml version="1.0" standalone="no"?><!DOCTYPE svg PUBLIC "-//W3C//DTD SVG 1.1//EN" "http://www.w3.org/Graphics/SVG/1.1/DTD/svg11.dtd"><svg t="1752560709857" class="icon" viewBox="0 0 1024 1024" version="1.1" xmlns="http://www.w3.org/2000/svg" p-id="25495" xmlns:xlink="http://www.w3.org/1999/xlink" width="200" height="200"><path d="M0 0m117.028571 0l789.942858 0q117.028571 0 117.028571 117.028571l0 789.942858q0 117.028571-117.028571 117.028571l-789.942858 0q-117.028571 0-117.028571-117.028571l0-789.942858q0-117.028571 117.028571-117.028571Z" fill="#f4ea2a" p-id="25496" data-spm-anchor-id="a313x.search_index.0.i0.5b9a3a81jwTkoX" class="selected"></path><path d="M687.867937 800.004063c20.626286 33.678222 47.461587 58.433016 94.923174 58.433016 39.870984 0 65.340952-19.927365 65.340952-47.461587 0-32.995556-26.168889-44.682159-70.054603-63.878095l-24.055873-10.32127c-69.436952-29.582222-115.565714-66.64127-115.565714-144.985397 0-72.167619 54.987175-127.106032 140.921905-127.106032 61.179937 0 105.163175 21.292698 136.858412 77.04381l-74.930793 48.111746c-16.497778-29.582222-34.295873-41.236317-61.927619-41.236317-28.184381 0-46.047492 17.879365-46.047492 41.236317 0 28.867048 17.879365 40.553651 59.164444 58.433016l24.055873 10.305016c81.75746 35.05981 127.91873 70.802286 127.91873 151.161904 0 86.633651-68.055365 134.095238-159.451428 134.095239-89.364317 0-147.098413-42.585397-175.34781-98.401524z m-339.919239 8.338286c15.11619 26.819048 28.867048 49.493333 61.927619 49.493334 31.613968 0 51.557587-12.36927 51.557588-60.464762v-327.192381h96.223492v328.492698c0 99.636825-58.416762 144.985397-143.68508 144.985397-77.04381 0-121.660952-39.870984-144.351492-87.893333z" p-id="25497" fill="#2c2c2c"></path></svg>