<?xml version="1.0" standalone="no"?><!DOCTYPE svg PUBLIC "-//W3C//DTD SVG 1.1//EN" "http://www.w3.org/Graphics/SVG/1.1/DTD/svg11.dtd"><svg t="1752569015781" class="icon" viewBox="0 0 1024 1024" version="1.1" xmlns="http://www.w3.org/2000/svg" p-id="87184" xmlns:xlink="http://www.w3.org/1999/xlink" width="200" height="200"><path d="M410.697143 310.473143l2.285714 53.046857-36.882286 69.156571-57.691428 112.950858-11.465143 94.573714 41.453714 133.741714 94.573715 53.046857h142.994285l133.668572-101.485714 59.977143-159.085714-138.313143-168.228572-39.241143-94.573714-191.36 6.857143z" fill="#ECEFF1" p-id="87185"></path><path d="M738.084571 441.929143c-36.882286-53.065143-66.870857-85.321143-82.962285-152.192-16.164571-66.870857 4.626286-48.420571-9.252572-106.057143a181.083429 181.083429 0 0 0-29.933714-66.852571c-13.805714-16.164571-29.988571-25.362286-39.222857-27.648-20.736-11.593143-69.156571-30.043429-129.170286 2.285714-62.189714 32.256-55.277714 101.412571-43.739428 242.121143 0 9.197714-2.358857 20.736-6.912 29.933714-9.252571 20.790857-25.417143 39.222857-39.241143 55.332571-16.091429 23.076571-32.256 46.134857-43.794286 71.497143-27.648 53.046857-53.046857 119.862857-46.153143 145.28 11.538286-2.340571 156.818286 218.989714 156.818286 223.634286 9.252571-2.304 48.420571-2.304 83.017143-2.304 48.457143-2.340571 76.068571-4.626286 115.309714 4.626286 0-6.948571-2.340571-13.805714-2.340571-20.790857 0-13.805714 2.340571-25.344 4.626285-41.453715 2.285714-11.52 4.626286-23.058286 6.912-36.937143-23.076571 20.772571-64.585143 43.849143-103.753143 50.761143-34.614857 6.912-92.233143-4.626286-119.936-39.241143 2.340571 0 6.966857 0 9.252572-2.267428 6.912-2.285714 13.824-4.626286 16.164571-9.252572 6.912-11.538286 2.285714-23.021714-2.340571-29.988571-4.626286-6.912-39.168-32.256-55.277714-46.08-16.219429-13.824-25.417143-20.736-34.596572-29.988571l-18.468571-18.432c-4.608-4.626286-6.948571-9.197714-9.234286-11.538286-4.626286-11.538286-6.912-25.362286-4.626286-43.812572 2.340571-25.344 11.52-46.134857 23.076572-69.138285 5.065143-9.398857 10.459429-18.614857 16.146285-27.648q-39.222857 96.786286-18.432 126.774857 2.285714-29.988571 11.52-59.977143c6.912-20.717714 18.468571-50.688 32.274286-66.852571 13.824-16.164571 48.420571-76.068571 50.706286-112.950858 0-16.164571 2.285714-32.329143 2.285714-43.867428-9.197714-9.197714 152.192-32.256 161.444572-6.912 2.285714 9.252571 34.596571 92.233143 53.028571 136.082286 9.216 20.736 20.754286 39.186286 27.648 62.244571 6.912 25.362286 11.538286 59.977143 11.538286 94.518857 0 6.912 0 18.450286-2.285715 30.043429 4.571429 0 94.518857-96.914286-11.52-177.609143q64.512 29.988571 66.870858 89.947428c2.267429 48.420571-18.468571 87.588571-23.076572 94.500572 2.285714 0 48.420571 20.790857 50.706286 20.790857q9.252571 0 27.629714-6.912c2.413714-6.948571 9.252571-25.417143 9.252572-32.310857 16.164571-52.992-23.058286-138.313143-59.958858-191.36z" fill="#263238" p-id="87186"></path><path d="M415.268571 243.657143c0 16.457143 5.76 31.652571 14.994286 39.899428 8.32 8.228571 21.705143 8.228571 29.988572 0 9.252571-8.228571 15.030857-23.442286 15.030857-39.899428 0-16.530286-5.778286-31.725714-15.030857-39.954286a21.266286 21.266286 0 0 0-29.988572 0c-9.234286 8.228571-14.994286 23.424-14.994286 39.954286z m94.555429-2.285714c0 18.870857 7.460571 36.406857 19.584 45.897142 12.141714 9.435429 27.044571 9.435429 39.241143 0 12.141714-9.490286 19.584-27.026286 19.584-45.952 0-29.257143-17.554286-53.065143-39.241143-53.065142-21.613714 0-39.168 23.808-39.168 53.065142v0.054858z" fill="#ECEFF1" p-id="87187"></path><path d="M449.517714 276.224c8.832-1.097143 14.409143-14.299429 12.489143-29.44-1.865143-15.140571-10.642286-26.569143-19.474286-25.417143-8.832 1.078857-14.409143 14.299429-12.544 29.44 1.92 15.195429 10.697143 26.550857 19.529143 25.472v-0.054857z m74.130286-25.654857c0 16.512 10.331429 29.988571 23.076571 29.988571 12.726857 0 23.076571-13.476571 23.076572-30.061714 0-16.512-10.349714-29.915429-23.076572-29.915429-12.745143 0-23.076571 13.403429-23.076571 29.988572z" fill="#212121" p-id="87188"></path><path d="M853.394286 757.833143c-9.197714-4.626286-25.362286-11.52-39.186286-32.329143-6.893714-11.52-4.626286-43.794286-16.146286-57.673143-6.912-9.197714-16.109714-4.571429-18.468571-4.571428-20.717714 4.626286-69.138286 36.900571-101.394286 0-4.626286-4.626286-11.538286-11.52-23.076571-11.52s-16.164571 4.608-20.790857 13.805714c-4.571429 9.252571-4.571429 16.219429-4.571429 39.241143 0 18.432 0 39.168-2.340571 55.332571-4.571429 39.168-11.52 62.244571-11.52 85.321143 0 25.344 6.948571 41.453714 16.146285 48.420571 6.912 6.912 18.450286 11.52 43.867429 11.52 25.289143 0 41.453714-9.234286 57.6-25.344 11.556571-11.52 20.736-16.164571 53.010286-39.222857 25.344-16.109714 64.585143-36.900571 71.497142-43.812571 4.626286-4.626286 11.52-6.912 11.52-20.717714 0-11.538286-9.234286-16.164571-16.146285-18.450286z m-463.469715 6.912c-23.021714-36.900571-25.362286-43.867429-41.453714-66.870857-13.824-23.076571-43.867429-66.870857-62.317714-66.870857-13.805714 0-20.717714 6.912-29.915429 16.164571-9.252571 9.179429-18.450286 29.915429-34.614857 41.453714-13.805714 11.52-53.028571 9.252571-62.244571 23.076572-9.252571 13.805714 9.197714 34.596571 9.197714 69.138285 0 13.824-11.52 23.076571-13.824 32.329143-2.267429 11.538286-4.626286 18.450286 0 27.648 9.197714 13.805714 20.736 18.432 99.145143 34.596572 41.508571 9.197714 80.694857 32.274286 106.093714 34.614857 25.362286 2.285714 69.101714 0 69.101714-62.317714 2.395429-36.882286-18.377143-46.08-39.168-82.962286z m43.849143-417.389714c-13.805714-9.197714-25.417143-18.450286-25.417143-32.256 0-13.824 9.252571-18.468571 23.076572-29.988572 2.340571-2.285714 27.648-25.362286 53.046857-25.362286 25.362286 0 55.350857 16.164571 66.870857 20.790858 20.736 4.571429 41.472 9.197714 39.186286 25.362285-2.285714 23.003429-4.571429 27.629714-27.648 39.168-16.164571 4.626286-46.134857 29.988571-66.870857 29.988572-9.252571 0-23.058286 0-32.256-2.285715-6.966857-2.340571-18.505143-13.824-30.043429-25.417142h0.054857z" fill="#FFC107" p-id="87189"></path><path d="M429.092571 328.905143c5.248 5.156571 11.556571 9.106286 18.505143 11.538286q4.626286 2.340571 11.52 4.626285h20.736c11.538286 0 27.648-4.626286 43.867429-13.824 16.091429-6.893714 18.377143-11.52 29.915428-16.146285 11.538286-6.912 23.076571-13.824 18.450286-16.091429-4.626286-2.377143-9.197714 0-25.362286 9.179429-13.805714 9.252571-25.344 13.805714-39.168 20.717714-6.912 2.340571-16.164571 6.966857-23.076571 6.966857h-20.717714c-6.966857 0-11.538286-2.340571-18.505143-4.626286-4.571429-2.340571-6.912-4.626286-9.197714-4.626285-4.626286-2.267429-13.824-11.52-18.450286-13.805715q-4.626286 0-2.285714 2.285715l13.824 13.805714h-0.054858z m69.211429-50.706286c2.340571 4.626286 6.912 4.626286 9.252571 6.912q2.285714 2.340571 4.571429 2.340572c2.340571-2.340571 0-6.912-2.285714-6.912 0-4.626286-11.52-4.626286-11.52-2.340572z m-36.882286 4.626286c0 2.285714 4.626286 4.626286 4.626286 2.285714 2.267429-2.285714 4.626286-4.571429 6.893714-4.571428 4.626286-2.340571 2.285714-4.626286-4.626285-4.626286-4.571429 2.285714-4.571429 4.626286-6.893715 6.912z" fill="#634703" p-id="87190"></path><path d="M685.037714 690.962286v6.912c4.626286 9.197714 16.219429 11.52 25.417143 11.52 13.805714 0 27.629714-9.234286 34.596572-18.432 0-2.340571 2.285714-4.626286 4.571428-6.912 4.626286-6.948571 6.912-11.52 9.252572-13.824q-2.340571-2.377143-2.340572-4.626286c-2.285714-4.626286-9.197714-9.252571-18.450286-11.52a101.485714 101.485714 0 0 0-23.003428-4.626286c-20.790857-2.285714-32.329143 4.626286-39.241143 11.52q2.340571 0 2.340571 2.285715c4.571429 4.114286 7.094857 10.020571 6.912 16.164571 2.285714 4.626286 0 6.912 0 11.538286h-0.054857z" fill="#455A64" p-id="87191"></path></svg>