<?xml version="1.0" standalone="no"?><!DOCTYPE svg PUBLIC "-//W3C//DTD SVG 1.1//EN" "http://www.w3.org/Graphics/SVG/1.1/DTD/svg11.dtd"><svg t="1752560952850" class="icon" viewBox="0 0 1024 1024" version="1.1" xmlns="http://www.w3.org/2000/svg" p-id="57113" xmlns:xlink="http://www.w3.org/1999/xlink" width="200" height="200"><path d="M949.527273 1024H74.472727c-41.146182 0-74.472727-33.326545-74.472727-74.472727V74.472727C0 33.326545 33.326545 0 74.472727 0h875.054546c41.146182 0 74.472727 33.326545 74.472727 74.472727v875.054546c0 41.146182-33.326545 74.472727-74.472727 74.472727z" fill="#00AADD" p-id="57114"></path><path d="M517.771636 612.352l-73.169454 178.176c21.410909 5.213091 44.125091 8.005818 67.397818 8.005818 24.017455 0 47.662545-2.792727 70.004364-8.564363M758.690909 370.501818c5.399273 25.879273 4.282182 56.971636-6.330182 91.415273-27.741091 89.367273-97.186909 250.786909-122.88 311.854545 99.793455-44.497455 169.053091-143.546182 169.053091-258.792727 0-52.875636-14.336-102.4-39.842909-144.477091m-467.130182 45.242182s-13.963636-18.432-28.672-18.432H247.621818c-14.336 32.395636-22.341818 75.031273-22.341818 114.688 0 117.294545 71.68 218.018909 175.383273 261.026909m-142.801455-400.290909c47.848727-89.181091 143.546182-147.269818 254.138182-147.269818 71.68 0 137.029818 30.347636 187.112727 73.355636-14.336-2.792727-29.602909 0.372364-45.800727 9.495273-37.050182 21.224727-48.965818 80.802909-1.117091 110.964364 30.161455 18.618182 40.773818 65.349818 39.470546 94.021818-0.930909 28.299636-69.259636 159.557818-69.259637 159.557818l-67.397818-228.631273s-1.675636-16.011636-1.675636-20.666182c0-5.771636 1.675636-12.846545 5.399272-17.128727 2.606545-2.606545 6.330182-8.936727 10.612364-8.936727h31.837091v-24.576h-172.032v24.576h5.399273c5.771636 0 11.170909 8.378182 16.384 13.405091 6.330182 6.516364 14.336 30.906182 23.831272 56.226909l24.948364 82.292363-53.806545 123.997091-59.019637-248.180363s1.675636-17.128727 5.399273-20.107637c2.234182-2.048 5.213091-7.819636 10.053818-7.819636h1.489455v-24.576h-145.966546z m0 0" fill="#FFFFFF" p-id="57115"></path></svg>