<?xml version="1.0" standalone="no"?><!DOCTYPE svg PUBLIC "-//W3C//DTD SVG 1.1//EN" "http://www.w3.org/Graphics/SVG/1.1/DTD/svg11.dtd"><svg t="1753253000587" class="icon" viewBox="0 0 1024 1024" version="1.1" xmlns="http://www.w3.org/2000/svg" p-id="19460" xmlns:xlink="http://www.w3.org/1999/xlink" width="200" height="200"><path d="M512 551.444699c-8.591915 0-15.621663-7.029748-15.621663-15.621663v-49.208238c0-8.591915 7.029748-15.621663 15.621663-15.621663s15.621663 7.029748 15.621663 15.621663v49.208238c0 9.372998-7.029748 15.621663-15.621663 15.621663z" fill="#3df379" p-id="19461"></path><path d="M212.845156 31.243326c18.745995 0 35.148741 14.059497 36.710908 33.586575l40.616323 427.252479h476.460718c20.308162 0 37.491991 16.402746 37.49199 37.491991 0 20.308162-16.402746 37.491991-37.49199 37.491991H257.366895c-19.527079 0-35.148741-14.84058-36.710907-33.586576L176.134249 71.859649c-1.562166-20.308162 13.278413-38.273074 33.586575-40.616323h3.124332m0-31.243326h-6.248665c-17.964912 1.562166-34.367658 10.154081-46.083905 24.213577A68.657208 68.657208 0 0 0 144.890923 74.202899l43.740656 460.839054c3.124333 35.148741 32.805492 61.705568 67.954233 61.705568h510.047293c37.491991 0 68.735317-30.462243 68.735316-68.735317 0-37.491991-30.462243-68.735317-68.735316-68.735316H319.072464L281.580473 61.705568c-3.905416-35.148741-32.805492-61.705568-68.735317-61.705568zM845.522502 811.545385c10.935164 0 21.870328 4.686499 29.681159 14.059497 12.49733 16.402746 9.372998 39.83524-6.248665 52.33257-94.51106 73.421815-221.046529 114.038139-356.173913 114.038139s-261.662853-40.616323-356.173913-114.038139c-16.402746-12.49733-19.527079-35.929825-6.248665-52.33257 7.029748-9.372998 17.964912-14.059497 29.681159-14.059497 7.810831 0 16.402746 2.343249 22.651412 7.810832C283.142639 882.623951 393.275362 917.772693 512 917.772693c118.724638 0 228.857361-35.148741 310.871091-98.416476 6.248665-5.467582 14.84058-7.810831 22.651411-7.810832m0-31.243326c-14.84058 0-29.681159 5.467582-42.17849 14.059497-76.546148 59.362319-179.649123 92.167811-291.344012 92.167811-111.694889 0-215.578947-32.805492-291.344012-92.167811-11.716247-9.372998-26.556827-14.059497-42.17849-14.059497-21.089245 0-41.397407 9.372998-53.894737 26.556827-10.935164 14.059497-16.402746 32.024409-14.059496 50.770405 2.343249 17.964912 11.716247 34.367658 25.775743 45.302822 99.978642 78.108314 233.54386 121.067887 375.700992 121.067887 142.157132 0 274.941266-42.959573 375.700992-121.067887 29.681159-23.432494 35.148741-66.392067 11.716247-96.073227-13.278413-17.183829-32.805492-26.556827-53.894737-26.556827z" fill="#3df379" p-id="19462"></path><path d="M383.902365 604.558352l-85.919146 233.54386c-23.432494-7.810831-37.491991-25.775744-58.581236-35.929825l66.392067-197.614035h78.108315m0-31.243325h-77.327232c-13.278413 0-24.994661 8.591915-29.681159 21.089245l-66.392067 197.614035c-4.686499 14.84058 1.562166 31.243326 15.621663 38.273074 6.248665 3.124333 12.49733 7.810831 18.745995 12.49733 11.716247 8.591915 24.994661 18.745995 43.740656 24.99466 3.124333 0.781083 6.248665 1.562166 9.372998 1.562167 12.49733 0 24.994661-7.810831 29.681159-20.308162l85.138063-231.981693c1.562166-3.905416 2.343249-7.810831 2.343249-11.716247 0-17.964912-14.059497-32.024409-31.243325-32.024409zM717.424867 604.558352l66.392067 197.614035c-21.089245 10.154081-34.367658 28.118993-58.581236 35.929825l-85.919146-233.54386h78.108315m0-31.243325h-77.327232c-10.154081 0-19.527079 4.686499-25.775743 13.278413-5.467582 8.591915-7.029748 18.745995-3.905416 28.900076l85.919146 233.54386c4.686499 12.49733 16.402746 20.308162 29.681159 20.308162 3.124333 0 6.248665-0.781083 9.372998-1.562167 18.745995-6.248665 32.024409-15.621663 43.740656-24.99466 7.029748-5.467582 12.49733-9.372998 18.745995-12.49733 14.059497-7.029748 21.089245-23.432494 15.621663-38.273074l-66.392067-197.614035c-4.686499-12.49733-16.402746-21.089245-29.681159-21.089245z" fill="#3df379" p-id="19463"></path></svg>