<?xml version="1.0" standalone="no"?><!DOCTYPE svg PUBLIC "-//W3C//DTD SVG 1.1//EN" "http://www.w3.org/Graphics/SVG/1.1/DTD/svg11.dtd"><svg t="1753255230519" class="icon" viewBox="0 0 1024 1024" version="1.1" xmlns="http://www.w3.org/2000/svg" p-id="20633" xmlns:xlink="http://www.w3.org/1999/xlink" width="200" height="200"><path d="M0 0m512 0l0 0q512 0 512 512l0 0q0 512-512 512l0 0q-512 0-512-512l0 0q0-512 512-512Z" fill="#2c2c2c" p-id="20634" data-spm-anchor-id="a313x.search_index.0.i4.24ac3a815iWfde" class=""></path><path d="M723.74272 551.5776L655.46752 512l68.2752-39.5776a54.64576 54.64576 0 0 0 25.58464-33.46944 54.54336 54.54336 0 0 0-5.61664-41.72288l-16.11264-27.66848a54.74304 54.74304 0 0 0-33.536-25.53344 54.86592 54.86592 0 0 0-41.8048 5.6064l-67.26656 39.00416V310.99904c0-30.32576-24.7296-54.99904-55.1168-54.99904h-32.06656c-30.39232 0-55.1168 24.67328-55.1168 54.99904v77.63968l-67.27168-39.00416a54.87616 54.87616 0 0 0-41.80992-5.6064 54.74304 54.74304 0 0 0-33.536 25.53344l-16.10752 27.66848a54.528 54.528 0 0 0-5.62176 41.72288 54.66112 54.66112 0 0 0 25.58976 33.46432L372.20352 512l-68.27008 39.5776a54.656 54.656 0 0 0-25.58976 33.47456 54.5536 54.5536 0 0 0 5.62176 41.71776l16.10752 27.66848c15.26784 26.21952 49.07008 35.15904 75.34592 19.92704l67.27168-39.00416v77.63968c0 30.32576 24.72448 54.99904 55.1168 54.99904h32.06656c30.39232 0 55.1168-24.67328 55.1168-54.99904v-112.384a20.0192 20.0192 0 0 0-20.0448-20.00384 20.0192 20.0192 0 0 0-20.03968 19.99872v112.384a15.03232 15.03232 0 0 1-15.03232 15.0016h-32.06656a15.03232 15.03232 0 0 1-15.03232-15.0016v-112.384a19.99872 19.99872 0 0 0-10.04544-17.33632 20.08576 20.08576 0 0 0-20.0704 0.04608l-97.37728 56.45824c-7.168 4.15232-16.384 1.7152-20.54656-5.43744l-16.11264-27.66848a14.86848 14.86848 0 0 1-1.53088-11.37664 14.90944 14.90944 0 0 1 6.97856-9.12896l98.0992-56.87296a19.98848 19.98848 0 0 0 0-34.5856l-98.0992-56.87808a14.91456 14.91456 0 0 1-6.97856-9.12896 14.8992 14.8992 0 0 1 1.536-11.37664l16.1024-27.66848a14.94016 14.94016 0 0 1 9.14944-6.9632 14.96576 14.96576 0 0 1 11.40224 1.52576l97.3824 56.45824a20.08576 20.08576 0 0 0 20.06528 0.04608 19.99872 19.99872 0 0 0 10.04544-17.33632v-112.384a15.03232 15.03232 0 0 1 15.03232-15.0016h32.06656a15.03232 15.03232 0 0 1 15.03232 15.0016v112.384c0 7.15264 3.82464 13.76256 10.04032 17.33632a20.08064 20.08064 0 0 0 20.06528-0.04608l97.3824-56.45824a14.96064 14.96064 0 0 1 11.40224-1.53088c3.88096 1.02912 7.12704 3.50208 9.14432 6.9632l16.10752 27.6736c2.0224 3.46112 2.56512 7.50592 1.536 11.37664a14.91456 14.91456 0 0 1-6.97856 9.12896l-98.0992 56.87296a19.98848 19.98848 0 0 0 0 34.59072l98.0992 56.87296a14.88896 14.88896 0 0 1 6.97856 9.12896 14.848 14.848 0 0 1-1.536 11.37664l-16.10752 27.66848a15.06816 15.06816 0 0 1-20.54656 5.43744 20.0704 20.0704 0 0 0-27.39712 7.2448 19.97312 19.97312 0 0 0 7.26016 27.3408c26.28096 15.232 60.07808 6.2976 75.34592-19.92704l16.10752-27.66848a54.54336 54.54336 0 0 0 5.62176-41.72288 54.67136 54.67136 0 0 0-25.58976-33.46432z" fill="#ffffff" p-id="20635" data-spm-anchor-id="a313x.search_index.0.i5.24ac3a815iWfde" class="selected"></path></svg>