<?xml version="1.0" standalone="no"?><!DOCTYPE svg PUBLIC "-//W3C//DTD SVG 1.1//EN" "http://www.w3.org/Graphics/SVG/1.1/DTD/svg11.dtd"><svg t="1753255753768" class="icon" viewBox="0 0 1024 1024" version="1.1" xmlns="http://www.w3.org/2000/svg" p-id="32823" xmlns:xlink="http://www.w3.org/1999/xlink" width="200" height="200"><path d="M158.281143 1023.122286c-33.353143-5.851429-42.130286-29.842286-36.571429-64.073143 2.194286-13.750857 57.856-337.188571 353.426286-502.491429 29.915429-16.676571 53.394286-13.604571 69.632 16.822857a63.707429 63.707429 0 0 1-24.502857 85.430858c-241.956571 135.314286-290.742857 410.112-291.181714 412.818285a61.952 61.952 0 0 1-70.802286 51.492572zM561.005714 235.154286c-233.837714 0-366.738286 118.052571-366.738285 435.2a51.785143 51.785143 0 0 1-103.570286 0c0-377.270857 181.833143-538.770286 470.308571-538.770286C671.744 131.657143 731.428571 99.108571 753.225143 35.108571a51.785143 51.785143 0 0 1 96.768-3.291428c110.445714 263.241143 110.445714 486.912-4.096 666.477714-115.712 181.467429-280.137143 253.659429-483.181714 211.090286a51.785143 51.785143 0 0 1 21.284571-101.376c160.182857 33.645714 281.673143-19.748571 374.637714-165.449143 81.408-127.634286 92.452571-285.988571 30.427429-477.915429-52.370286 47.177143-129.609143 70.582857-227.986286 70.582858z" fill="#ffffff" p-id="32824"></path></svg>