<?xml version="1.0" standalone="no"?><!DOCTYPE svg PUBLIC "-//W3C//DTD SVG 1.1//EN" "http://www.w3.org/Graphics/SVG/1.1/DTD/svg11.dtd"><svg t="1770706778970" class="icon" viewBox="0 0 1024 1024" version="1.1" xmlns="http://www.w3.org/2000/svg" p-id="20807" xmlns:xlink="http://www.w3.org/1999/xlink" width="200" height="200"><path d="M639.8 648.6m-153 0a153 153 0 1 0 306 0 153 153 0 1 0-306 0Z" fill="#C5FFE3" p-id="20808"></path><path d="M440.3 149.4m-70 0a70 70 0 1 0 140 0 70 70 0 1 0-140 0Z" fill="#C5FFE3" p-id="20809"></path><path d="M404.365 311.105l46.886-10.287 21.216 96.703-46.887 10.287zM490.026 248.653l14.3-45.82 219.558 68.516-14.3 45.821z" fill="#38E898" p-id="20810"></path><path d="M509.7 801.9c-57.2 0-110.9-22.3-151.3-62.7-40.4-40.4-62.7-94.2-62.7-151.3 0-57.2 22.3-110.9 62.7-151.3 40.4-40.4 94.2-62.7 151.3-62.7 57.2 0 110.9 22.3 151.3 62.7 40.4 40.4 62.7 94.2 62.7 151.3 0 118-96 214-214 214z m0-380c-91.5 0-166 74.5-166 166s74.5 166 166 166 166-74.5 166-166-74.5-166-166-166zM187.3 765.2c39.7 0 72 32.3 72 72s-32.3 72-72 72-72-32.3-72-72 32.3-72 72-72m0-48c-66.3 0-120 53.7-120 120s53.7 120 120 120 120-53.7 120-120-53.7-120-120-120zM408.9 165.4c28.7 0 52 23.3 52 52s-23.3 52-52 52-52-23.3-52-52 23.3-52 52-52m0-48c-55.2 0-100 44.8-100 100s44.8 100 100 100 100-44.8 100-100-44.8-100-100-100zM820.4 215.7c50.7 0 92 41.3 92 92s-41.3 92-92 92-92-41.3-92-92 41.2-92 92-92m0-48c-77.3 0-140 62.7-140 140s62.7 140 140 140 140-62.7 140-140-62.7-140-140-140z" fill="#38E898" p-id="20811"></path><path d="M251.523 775.712l99.567-83.59 30.864 36.763-99.567 83.59z" fill="#38E898" p-id="20812"></path></svg>